<?xml version="1.0" encoding="iso-8859-1"?>
<!-- Generator: Adobe Illustrator 19.0.0, SVG Export Plug-In . SVG Version: 6.00 Build 0)  -->
<svg version="1.1" id="Capa_1" xmlns="http://www.w3.org/2000/svg" xmlns:xlink="http://www.w3.org/1999/xlink" x="0px" y="0px"
	 viewBox="0 0 423.053 423.053" style="enable-background:new 0 0 423.053 423.053;" xml:space="preserve">
<path style="fill:#EAEAEA;" d="M317.105,388.534L98.962,358.725c-10.738-1.468-18.251-11.36-16.783-22.098l42.749-312.835
	c1.468-10.738,11.36-18.251,22.098-16.783l218.143,29.809c10.738,1.468,18.251,11.36,16.783,22.098L339.203,371.75
	C337.735,382.489,327.84,390.001,317.105,388.534z"/>
<path style="fill:#602F75;" d="M319.815,395.548c-1.205,0-2.42-0.082-3.632-0.249l0,0L98.04,365.49
	c-7.001-0.956-13.206-4.581-17.48-10.206c-4.273-5.625-6.1-12.578-5.144-19.575L118.165,22.87
	c0.956-7.001,4.581-13.206,10.206-17.48c5.625-4.27,12.578-6.096,19.575-5.144l218.143,29.809
	c7.001,0.956,13.206,4.581,17.48,10.206s6.1,12.578,5.144,19.575l-42.749,312.835c-0.956,7.001-4.581,13.206-10.206,17.48
	C331.106,393.684,325.553,395.548,319.815,395.548z M318.026,381.772c3.396,0.464,6.755-0.42,9.472-2.488
	c2.72-2.065,4.475-5.065,4.936-8.455l42.749-312.835c0.464-3.386-0.42-6.752-2.488-9.472c-2.065-2.72-5.065-4.475-8.455-4.936
	L146.097,13.777c-3.389-0.468-6.752,0.42-9.472,2.488c-2.72,2.065-4.475,5.065-4.936,8.455L88.94,337.556
	c-0.464,3.386,0.42,6.752,2.488,9.472c2.065,2.72,5.065,4.475,8.455,4.936L318.026,381.772z"/>
<path style="fill:#FFFFFF;" d="M280.708,416.226H60.542c-10.837,0-19.623-8.786-19.623-19.623V80.859
	c0-10.837,8.786-19.623,19.623-19.623h220.167c10.837,0,19.623,8.786,19.623,19.623v315.74
	C300.332,407.44,291.546,416.226,280.708,416.226z"/>
<path style="fill:#602F75;" d="M280.708,423.053H60.542c-14.582,0-26.45-11.868-26.45-26.45V80.863
	c0-14.582,11.868-26.45,26.45-26.45h220.167c14.582,0,26.45,11.868,26.45,26.45v315.74
	C307.158,411.185,295.29,423.053,280.708,423.053z M60.542,68.066c-7.055,0-12.797,5.741-12.797,12.797v315.74
	c0,7.055,5.741,12.797,12.797,12.797h220.167c7.055,0,12.797-5.741,12.797-12.797V80.863c0-7.055-5.741-12.797-12.797-12.797H60.542
	z"/>
<rect x="68.235" y="68.066" style="fill:#00E7FF;" width="68.267" height="341.333"/>
<g>
	<path style="fill:#602F75;" d="M238.892,347.959H95.532c-3.768,0-6.827-3.058-6.827-6.827s3.058-6.827,6.827-6.827h143.36
		c3.768,0,6.827,3.058,6.827,6.827S242.66,347.959,238.892,347.959z"/>
	<path style="fill:#602F75;" d="M170.625,382.093H95.532c-3.768,0-6.827-3.058-6.827-6.827s3.058-6.827,6.827-6.827h75.093
		c3.768,0,6.827,3.058,6.827,6.827S174.393,382.093,170.625,382.093z"/>
</g>
<rect x="61.409" y="129.506" style="fill:#EA3457;" width="218.453" height="136.533"/>
<path style="fill:#602F75;" d="M279.852,272.866H61.398c-3.768,0-6.827-3.058-6.827-6.827V129.506c0-3.768,3.058-6.827,6.827-6.827
	h218.453c3.768,0,6.827,3.058,6.827,6.827v136.533C286.678,269.808,283.62,272.866,279.852,272.866z M68.225,259.213h204.8v-122.88
	h-204.8V259.213z"/>
<rect x="61.409" y="129.506" style="fill:#FFE600;" width="95.573" height="81.92"/>
<path style="fill:#602F75;" d="M156.972,218.253H61.398c-3.768,0-6.827-3.058-6.827-6.827v-81.92c0-3.768,3.058-6.827,6.827-6.827
	h95.573c3.768,0,6.827,3.058,6.827,6.827v81.92C163.798,215.194,160.74,218.253,156.972,218.253z M68.225,204.599h81.92v-68.267
	h-81.92V204.599z"/>
<path style="fill:#FFE600;" d="M103.075,150.624l1.628,5.011c2.014,6.195,7.786,10.39,14.298,10.39h5.27l-4.263,3.096
	c-5.27,3.83-7.475,10.615-5.461,16.811l1.628,5.011l-4.263-3.096c-5.27-3.83-12.404-3.83-17.674,0l-4.263,3.096l1.628-5.011
	c2.014-6.195-0.191-12.981-5.461-16.811l-4.263-3.096h5.27c6.513,0,12.288-4.195,14.298-10.39L103.075,150.624z"/>
<g>
	<path style="fill:#602F75;" d="M89.975,197.773c-1.41,0-2.816-0.434-4.014-1.304c-2.393-1.741-3.393-4.82-2.481-7.632l1.632-5.014
		c1.099-3.389-0.096-7.076-2.98-9.175l-4.267-3.103c-2.393-1.737-3.393-4.82-2.481-7.629c0.918-2.813,3.536-4.717,6.492-4.717h5.27
		c3.567,0,6.707-2.28,7.806-5.67l1.628-5.011c0.915-2.813,3.533-4.721,6.489-4.721c0.003,0,0.003,0,0.003,0
		c2.956,0,5.577,1.905,6.492,4.717l1.632,5.014c1.099,3.389,4.236,5.67,7.803,5.67h5.27c2.956,0,5.577,1.905,6.492,4.717
		c0.915,2.809-0.085,5.895-2.482,7.629l-4.263,3.099c-2.888,2.099-4.082,5.782-2.98,9.175l1.628,5.018
		c0.915,2.813-0.089,5.895-2.481,7.629c-2.393,1.741-5.632,1.741-8.028,0l-4.263-3.096c-2.888-2.099-6.758-2.099-9.646,0
		l-4.263,3.096C92.791,197.339,91.381,197.773,89.975,197.773z M103.075,178.136c1.362,0,2.727,0.13,4.072,0.386
		c0.345-2.72,1.201-5.349,2.516-7.752c-2.478-1.171-4.714-2.792-6.591-4.789c-1.877,1.997-4.113,3.625-6.591,4.789
		c1.321,2.4,2.174,5.031,2.516,7.752C100.348,178.266,101.71,178.136,103.075,178.136z"/>
	<path style="fill:#602F75;" d="M279.852,163.639h-122.88c-3.768,0-6.827-3.058-6.827-6.827s3.058-6.827,6.827-6.827h122.88
		c3.768,0,6.827,3.058,6.827,6.827S283.62,163.639,279.852,163.639z"/>
	<path style="fill:#602F75;" d="M279.852,190.946h-122.88c-3.768,0-6.827-3.058-6.827-6.827s3.058-6.827,6.827-6.827h122.88
		c3.768,0,6.827,3.058,6.827,6.827S283.62,190.946,279.852,190.946z"/>
	<path style="fill:#602F75;" d="M279.852,218.253h-122.88c-3.768,0-6.827-3.058-6.827-6.827c0-3.768,3.058-6.827,6.827-6.827h122.88
		c3.768,0,6.827,3.058,6.827,6.827C286.678,215.194,283.62,218.253,279.852,218.253z"/>
	<path style="fill:#602F75;" d="M279.852,245.559H61.398c-3.768,0-6.827-3.058-6.827-6.827s3.058-6.827,6.827-6.827h218.453
		c3.768,0,6.827,3.058,6.827,6.827S283.62,245.559,279.852,245.559z"/>
</g>
<g>
</g>
<g>
</g>
<g>
</g>
<g>
</g>
<g>
</g>
<g>
</g>
<g>
</g>
<g>
</g>
<g>
</g>
<g>
</g>
<g>
</g>
<g>
</g>
<g>
</g>
<g>
</g>
<g>
</g>
</svg>
